<?xml version="1.0" encoding="UTF-8"?>
<svg id="Layer_2" data-name="Layer 2" xmlns="http://www.w3.org/2000/svg" viewBox="0 0 602.78 73.24">
  <defs>
    <style>
      .cls-1 {
        fill: #1473b8;
      }
    </style>
  </defs>
  <g id="Layer_1-2" data-name="Layer 1">
    <g>
      <path class="cls-1" d="M48.68,71.48V30.96h-1.07l-8.2,32.71h-14.31l-9.23-31.49h-1.03v39.31H.05c0-11.95,0-23.84-.02-35.69-.02-11.85-.02-23.75-.02-35.69h17.77l12.35,42.72L41.06.1h22.41v71.39h-14.79Z"/>
      <path class="cls-1" d="M100.68,72.46v-1.71c-2.54,1.07-5.27,1.61-8.2,1.61h-.29c-3.22,0-6.27-.61-9.13-1.83-2.86-1.22-5.35-2.89-7.47-5-2.12-2.12-3.79-4.6-5.03-7.45-1.24-2.85-1.86-5.88-1.86-9.11v-7.81c0-3.16.59-6.15,1.76-8.98s2.78-5.31,4.83-7.45c2.05-2.13,4.48-3.82,7.3-5.08,2.82-1.25,5.87-1.88,9.16-1.88h.34c3.03,0,5.89.54,8.59,1.61v-2.15h14.79v55.22h-14.79ZM100,37.84c-.46-1.04-1.07-1.95-1.86-2.73s-1.69-1.39-2.73-1.83c-1.04-.44-2.15-.66-3.32-.66h-.34c-1.2,0-2.31.23-3.32.68-1.01.46-1.88,1.07-2.61,1.86s-1.3,1.69-1.71,2.73c-.41,1.04-.61,2.13-.61,3.27v7.81c0,1.17.23,2.28.68,3.32.46,1.04,1.07,1.95,1.86,2.73s1.69,1.39,2.73,1.83c1.04.44,2.16.66,3.37.66h.24c1.17,0,2.26-.22,3.27-.66,1.01-.44,1.88-1.04,2.61-1.81.73-.76,1.32-1.68,1.76-2.73.44-1.06.66-2.17.66-3.34v-7.86c0-1.17-.23-2.26-.68-3.27Z"/>
      <path class="cls-1" d="M136.38,17.82v3.81c.59-.29,1.17-.57,1.76-.83,3.29-1.4,6.8-2.1,10.55-2.1h1.07v14.75h-1.07c-1.69,0-3.29.33-4.79.98-1.5.65-2.8,1.53-3.91,2.64-1.11,1.11-1.99,2.41-2.64,3.91-.65,1.5-.98,3.09-.98,4.79v25.73h-14.75V17.82h14.75Z"/>
      <path class="cls-1" d="M168.26,0v37.69l12.89-18.7h12.94l-14.5,21.04,14.11,31.1h-14.75l-8.3-20.26-2.39,2.88v17.38h-14.84V0h14.84Z"/>
      <path class="cls-1" d="M227.93,72.46v-1.71c-2.54,1.07-5.27,1.61-8.2,1.61h-.29c-3.22,0-6.27-.61-9.13-1.83-2.86-1.22-5.35-2.89-7.47-5-2.12-2.12-3.79-4.6-5.03-7.45-1.24-2.85-1.86-5.88-1.86-9.11v-7.81c0-3.16.59-6.15,1.76-8.98s2.78-5.31,4.83-7.45c2.05-2.13,4.48-3.82,7.3-5.08,2.82-1.25,5.87-1.88,9.16-1.88h.34c3.03,0,5.89.54,8.59,1.61v-2.15h14.79v55.22h-14.79ZM227.25,37.84c-.46-1.04-1.07-1.95-1.86-2.73s-1.69-1.39-2.73-1.83c-1.04-.44-2.15-.66-3.32-.66h-.34c-1.2,0-2.31.23-3.32.68-1.01.46-1.88,1.07-2.61,1.86s-1.3,1.69-1.71,2.73c-.41,1.04-.61,2.13-.61,3.27v7.81c0,1.17.23,2.28.68,3.32.46,1.04,1.07,1.95,1.86,2.73s1.69,1.39,2.73,1.83c1.04.44,2.16.66,3.37.66h.24c1.17,0,2.26-.22,3.27-.66,1.01-.44,1.88-1.04,2.61-1.81.73-.76,1.32-1.68,1.76-2.73.44-1.06.66-2.17.66-3.34v-7.86c0-1.17-.23-2.26-.68-3.27Z"/>
      <path class="cls-1" d="M247.61,19.09h31.64v14.79l-14.79,22.8h14.65v14.79h-31.74l.05-14.79,16.16-22.8h-15.97v-14.79Z"/>
      <path class="cls-1" d="M330.86,19.04v53.91h-14.79v-1.32c-2.7,1.07-5.57,1.61-8.59,1.61-3.22,0-6.26-.61-9.11-1.83-2.85-1.22-5.33-2.89-7.45-5-2.12-2.12-3.78-4.6-5-7.45-1.22-2.85-1.83-5.88-1.83-9.11v-30.81h14.79v30.81c0,1.17.23,2.28.68,3.32.46,1.04,1.07,1.95,1.83,2.73.76.78,1.67,1.4,2.71,1.86,1.04.46,2.16.68,3.37.68s2.28-.23,3.32-.68c1.04-.46,1.95-1.07,2.73-1.86s1.4-1.69,1.86-2.73c.46-1.01.68-2.1.68-3.27v-30.86h14.79Z"/>
      <path class="cls-1" d="M352.05.05v71.44h-14.7V.05h14.7Z"/>
      <path class="cls-1" d="M405.18,19.04v53.91h-14.79v-1.32c-2.7,1.07-5.57,1.61-8.59,1.61-3.22,0-6.26-.61-9.11-1.83-2.85-1.22-5.33-2.89-7.45-5-2.12-2.12-3.78-4.6-5-7.45-1.22-2.85-1.83-5.88-1.83-9.11v-30.81h14.79v30.81c0,1.17.23,2.28.68,3.32.46,1.04,1.07,1.95,1.83,2.73.76.78,1.67,1.4,2.71,1.86,1.04.46,2.16.68,3.37.68s2.28-.23,3.32-.68c1.04-.46,1.95-1.07,2.73-1.86s1.4-1.69,1.86-2.73c.46-1.01.68-2.1.68-3.27v-30.86h14.79Z"/>
      <path class="cls-1" d="M426.37.05v71.44h-14.7V.05h14.7Z"/>
      <path class="cls-1" d="M431.98,50.54v-12.21c0-2.64.45-5.18,1.34-7.64.89-2.46,2.18-4.64,3.86-6.54,1.68-1.9,3.71-3.43,6.1-4.57,2.39-1.14,5.1-1.71,8.13-1.71h1.76c2.96,0,5.66.56,8.08,1.68,2.42,1.12,4.49,2.63,6.2,4.52,1.71,1.89,3.04,4.06,3.98,6.52.94,2.46,1.42,5.04,1.42,7.74v12.21c0,2.51-.4,4.98-1.2,7.42-.8,2.44-1.99,4.63-3.59,6.57-1.6,1.94-3.56,3.5-5.91,4.69-2.34,1.19-5.08,1.78-8.2,1.78h-1.76c-2.87,0-5.53-.54-8.01-1.64-2.47-1.09-4.61-2.56-6.42-4.42s-3.22-4.03-4.25-6.52-1.54-5.12-1.54-7.89ZM447.12,52.69c.26.72.63,1.33,1.12,1.86.49.52,1.07.94,1.73,1.25.67.31,1.41.46,2.22.46h1.76c.94,0,1.69-.22,2.25-.66.55-.44.97-.97,1.25-1.59.28-.62.46-1.25.54-1.88.08-.63.12-1.16.12-1.59v-12.21c0-.75-.11-1.46-.32-2.15-.21-.68-.52-1.29-.93-1.81-.41-.52-.92-.94-1.54-1.27-.62-.33-1.33-.49-2.15-.49h-1.76c-.88,0-1.61.18-2.2.54-.59.36-1.07.81-1.44,1.37-.38.55-.64,1.16-.81,1.83-.16.67-.24,1.33-.24,1.98v12.21c0,.75.13,1.46.39,2.15Z"/>
      <path class="cls-1" d="M477.54,50.54v-12.21c0-2.64.45-5.18,1.34-7.64.89-2.46,2.18-4.64,3.86-6.54,1.68-1.9,3.71-3.43,6.1-4.57,2.39-1.14,5.1-1.71,8.13-1.71h1.76c2.96,0,5.66.56,8.08,1.68,2.42,1.12,4.49,2.63,6.2,4.52,1.71,1.89,3.04,4.06,3.98,6.52.94,2.46,1.42,5.04,1.42,7.74v12.21c0,2.51-.4,4.98-1.2,7.42-.8,2.44-1.99,4.63-3.59,6.57-1.6,1.94-3.56,3.5-5.91,4.69-2.34,1.19-5.08,1.78-8.2,1.78h-1.76c-2.87,0-5.53-.54-8.01-1.64-2.47-1.09-4.61-2.56-6.42-4.42s-3.22-4.03-4.25-6.52-1.54-5.12-1.54-7.89ZM492.68,52.69c.26.72.63,1.33,1.12,1.86.49.52,1.07.94,1.73,1.25.67.31,1.41.46,2.22.46h1.76c.94,0,1.69-.22,2.25-.66.55-.44.97-.97,1.25-1.59.28-.62.46-1.25.54-1.88.08-.63.12-1.16.12-1.59v-12.21c0-.75-.11-1.46-.32-2.15-.21-.68-.52-1.29-.93-1.81-.41-.52-.92-.94-1.54-1.27-.62-.33-1.33-.49-2.15-.49h-1.76c-.88,0-1.61.18-2.2.54-.59.36-1.07.81-1.44,1.37-.38.55-.64,1.16-.81,1.83-.16.67-.24,1.33-.24,1.98v12.21c0,.75.13,1.46.39,2.15Z"/>
      <path class="cls-1" d="M555.96,41.65v-.78c-.07-.88-.28-1.72-.63-2.54-.46-1.04-1.07-1.95-1.86-2.73s-1.69-1.39-2.73-1.83c-1.04-.44-2.15-.66-3.32-.66s-2.33.22-3.37.66c-1.04.44-1.95,1.05-2.71,1.83-.77.78-1.38,1.69-1.83,2.73-.46,1.04-.68,2.15-.68,3.32v29.83h-14.79V18.55h14.79v3.27c.42-.42.88-.81,1.37-1.17.98-.72,2.08-1.29,3.3-1.73s2.53-.66,3.93-.66c3.22,0,6.27.6,9.13,1.81,2.57,1.14,4.87,2.64,6.88,4.49,1.99-1.86,4.26-3.35,6.84-4.49,2.83-1.2,5.88-1.81,9.13-1.81s6.25.61,9.08,1.83,5.31,2.89,7.42,5c2.12,2.12,3.79,4.6,5.03,7.45,1.24,2.85,1.86,5.88,1.86,9.11v29.83h-14.84v-29.83c0-1.17-.22-2.28-.66-3.32-.44-1.04-1.05-1.95-1.83-2.73s-1.69-1.39-2.73-1.83c-1.04-.44-2.15-.66-3.32-.66s-2.33.22-3.37.66c-1.04.44-1.95,1.05-2.73,1.83s-1.39,1.69-1.83,2.73c-.44,1.04-.66,2.15-.66,3.32v29.83h-14.79v-29.83h-.05Z"/>
    </g>
  </g>
</svg>