<?xml version="1.0" encoding="UTF-8"?>
<svg id="Layer_2" data-name="Layer 2" xmlns="http://www.w3.org/2000/svg" viewBox="0 0 597.41 99.69">
  <defs>
    <style>
      .cls-1 {
        fill: #1b75c1;
      }
    </style>
  </defs>
  <g id="Layer_1-2" data-name="Layer 1">
    <g>
      <path class="cls-1" d="M0,33.69v-.22c0-3.3.64-6.43,1.91-9.38,1.27-2.95,3.02-5.54,5.23-7.75s4.81-3.96,7.79-5.23c2.98-1.27,6.17-1.91,9.55-1.91h.56c3.47,0,6.66.66,9.55,1.98,2.89,1.32,5.38,3.1,7.47,5.34s3.7,4.85,4.84,7.82c1.14,2.97,1.71,6.09,1.71,9.36l.04,39.86H0v-39.86ZM20.32,59.75c.32-1.5.59-3.09.83-4.75.23-1.66.35-2.95.37-3.84.01-.9.02-1.43.02-1.61,0-1.45-.12-2.88-.35-4.3-.23-1.42-.67-2.71-1.3-3.86-.46-.84-1-1.54-1.61-2.11s-1.25-.98-1.91-1.24c-.67-.26-1.35-.39-2.04-.39h-.22c-.32.03-.65.09-1,.17v22.58h7.03c.06-.2.12-.42.17-.65ZM30.18,60.4h5.34v-26.7c0-1.5-.25-2.95-.74-4.32-.49-1.37-1.19-2.58-2.08-3.63-.9-1.04-2-1.87-3.3-2.5-1.3-.62-2.75-.93-4.34-.93h-.56c-1.56,0-3.04.3-4.43.89-1.39.59-2.59,1.4-3.6,2.41-.9.9-1.62,1.93-2.17,3.08.78-.23,1.58-.36,2.39-.39h.52c1.1,0,2.24.17,3.41.52,1.17.35,2.35.91,3.54,1.69,1.19.78,2.29,1.75,3.3,2.91.87,1.04,1.56,2.38,2.06,4.02.51,1.64.88,3.41,1.11,5.32.23,1.91.35,3.88.35,5.91,0,.12,0,.75-.02,1.89-.02,1.14-.09,2.76-.24,4.84-.15,1.74-.32,3.4-.52,4.99Z"/>
      <path class="cls-1" d="M52.15,73.51V31.96c0-3.13.59-6.06,1.78-8.81,1.19-2.75,2.81-5.15,4.86-7.21s4.46-3.68,7.21-4.86c1.22-.52,2.47-.94,3.78-1.26V.17h13.11v9.64c1.3.32,2.58.74,3.82,1.26,2.72,1.19,5.11,2.81,7.16,4.86,2.05,2.06,3.68,4.46,4.86,7.21,1.19,2.75,1.78,5.69,1.78,8.81v27.18c0,.67-.03,1.32-.09,1.95-.09.67-.22,1.32-.39,1.95-.41,1.59-1.04,3.08-1.89,4.45-.85,1.38-1.89,2.58-3.1,3.63-1.22,1.04-2.58,1.88-4.08,2.52-1.51.64-3.11,1.01-4.82,1.13-.35.03-.68.04-1,.04-1.45,0-2.92-.22-4.43-.67-1.51-.45-2.95-1.16-4.34-2.15-1.39-.98-2.59-2.18-3.6-3.58-1.01-1.4-1.78-2.94-2.3-4.62-.2-.69-.36-1.39-.48-2.08-.12-.69-.19-1.42-.22-2.17V23.84c-.64.41-1.22.85-1.74,1.35-.87.87-1.55,1.88-2.04,3.04-.49,1.16-.74,2.4-.74,3.73v41.55h-13.11ZM83.67,61.05c.43.43.93.65,1.48.65h.17c.26,0,.51-.07.76-.2.25-.13.47-.31.67-.54.2-.23.36-.49.48-.78.12-.29.17-.62.17-1v-27.22c0-1.33-.25-2.58-.74-3.73s-1.17-2.17-2.04-3.04c-.52-.49-1.1-.94-1.74-1.35v35.52c0,.64.26,1.2.78,1.69Z"/>
      <path class="cls-1" d="M126.48,73.42c-1.97.81-4.1,1.22-6.38,1.22s-4.45-.4-6.4-1.19c-1.95-.8-3.65-1.88-5.08-3.26-1.43-1.37-2.55-2.97-3.36-4.8-.81-1.82-1.22-3.78-1.22-5.86v-10.29c0-2.26.43-4.38,1.28-6.36.85-1.98,2.02-3.7,3.5-5.17,1.48-1.46,3.21-2.62,5.19-3.47,1.98-.85,4.1-1.28,6.36-1.28h2.61v-5.56c0-2.52.48-4.88,1.43-7.1.96-2.21,2.26-4.15,3.91-5.8s3.58-2.95,5.8-3.91c2.21-.96,4.58-1.43,7.1-1.43h.3c2.46,0,4.78.47,6.95,1.41,2.17.94,4.07,2.22,5.69,3.84,1.62,1.62,2.89,3.52,3.82,5.69.93,2.17,1.39,4.49,1.39,6.95v5.9c2.4.06,4.69.54,6.86,1.43,2.26.98,4.23,2.32,5.9,4.02s3.01,3.67,3.99,5.93c.98,2.26,1.48,4.68,1.48,7.25v21.36h-13.2v-21.36c0-.75-.15-1.46-.43-2.13-.29-.67-.68-1.24-1.17-1.74-.49-.49-1.07-.88-1.74-1.17-.55-.23-1.11-.38-1.69-.43v10.29c0,2.37-.41,4.66-1.24,6.86-.82,2.2-2,4.14-3.54,5.82-1.53,1.68-3.38,3.02-5.54,4.04-2.16,1.01-4.55,1.52-7.19,1.52h-.69c-2.52,0-4.88-.48-7.08-1.43-1.3-.55-2.5-1.23-3.6-2.04-1.19.93-2.52,1.68-3.99,2.26ZM119.14,46.33c-.38.17-.71.41-1,.69s-.51.62-.67,1c-.16.38-.24.78-.24,1.22v10.29c0,.26.06.51.17.74.12.23.29.43.52.61.23.17.53.31.89.41.36.1.79.15,1.28.15s.91-.05,1.26-.15c.35-.1.64-.24.89-.41.25-.17.43-.38.54-.61.12-.23.17-.48.17-.74v-13.42h-2.61c-.43,0-.84.07-1.22.22ZM146.19,32.96v-5.9c0-.67-.12-1.28-.37-1.85-.25-.56-.58-1.06-1-1.48-.42-.42-.91-.75-1.48-1-.56-.25-1.18-.37-1.85-.37h-.3c-.69,0-1.35.13-1.98.39-.62.26-1.16.62-1.61,1.09-.45.46-.81,1-1.09,1.61-.28.61-.41,1.26-.41,1.95v5.56h10.07ZM136.56,58.36c.26.64.61,1.18,1.06,1.63.45.45.98.8,1.58,1.06.61.26,1.26.39,1.95.39h.69c.72,0,1.36-.14,1.91-.43.55-.29,1.01-.67,1.37-1.13.36-.46.63-1,.8-1.61.17-.61.26-1.23.26-1.87v-10.29h-10.07v10.33c0,.67.14,1.3.43,1.91Z"/>
      <path class="cls-1" d="M260.87,10.77v47.46c0,2.11-.36,4.17-1.09,6.17-.72,2-1.77,3.76-3.13,5.3-1.36,1.53-3.02,2.77-4.97,3.71-1.95.94-4.16,1.41-6.62,1.41h-1.22c-2.29,0-4.44-.43-6.45-1.3-2.01-.87-3.76-2.06-5.25-3.56-1.49-1.5-2.66-3.26-3.5-5.28-.84-2.01-1.26-4.15-1.26-6.4v-31.05c0-.69-.14-1.35-.41-1.98-.28-.62-.64-1.16-1.09-1.63-.45-.46-.97-.82-1.56-1.06-.59-.25-1.21-.37-1.85-.37h-.22c-.69,0-1.34.15-1.93.46-.59.3-1.11.71-1.54,1.22-.43.51-.77,1.09-1.02,1.74-.25.65-.37,1.32-.37,2.02v45.89h-13.16V27.62c0-.72-.12-1.41-.37-2.06-.25-.65-.59-1.22-1.04-1.72-.45-.49-.97-.89-1.56-1.19-.59-.3-1.24-.46-1.93-.46h-.22c-.61,0-1.21.12-1.8.37-.59.25-1.12.6-1.58,1.06s-.83,1.01-1.11,1.63c-.28.62-.41,1.28-.41,1.98v46.29h-13.16V27.18c0-2.55.48-4.93,1.45-7.14.97-2.21,2.29-4.15,3.97-5.8s3.61-2.93,5.8-3.84c2.19-.91,4.46-1.37,6.84-1.37h.43c2.55.06,4.92.59,7.12,1.61,1.53.72,2.92,1.62,4.17,2.69,1.24-1.07,2.65-1.97,4.21-2.69,2.17-1.01,4.52-1.55,7.03-1.61h.43c2.34,0,4.61.46,6.8,1.37,2.19.91,4.12,2.19,5.8,3.84,1.68,1.65,3,3.58,3.97,5.8.97,2.21,1.45,4.6,1.45,7.14v31.05c0,.46.09.9.26,1.32.17.42.41.79.72,1.11.3.32.67.56,1.09.74.42.17.86.26,1.32.26h1.09c.58,0,1.05-.13,1.41-.39.36-.26.64-.58.82-.96.19-.38.31-.76.37-1.15.06-.39.09-.72.09-.98V10.77h13.16Z"/>
      <path class="cls-1" d="M265.29,32.39v-5.73c0-2.46.46-4.77,1.39-6.93.93-2.16,2.19-4.04,3.8-5.67,1.61-1.62,3.5-2.9,5.67-3.84,2.17-.94,4.49-1.41,6.95-1.41s4.87.46,7.06,1.39c2.19.93,4.1,2.19,5.73,3.8,1.64,1.61,2.92,3.5,3.86,5.67.94,2.17,1.41,4.5,1.41,6.99,0,2.78-.41,5.41-1.22,7.88-.81,2.48-1.84,4.87-3.08,7.19-1.19,2.2-2.49,4.34-3.91,6.43,1.01.69,1.95,1.46,2.82,2.3,1.65,1.68,2.96,3.64,3.93,5.88.97,2.24,1.45,4.62,1.45,7.14v6.04c0,2.55-.48,4.94-1.45,7.16-.97,2.23-2.29,4.18-3.95,5.84-1.66,1.66-3.61,2.98-5.84,3.95-2.23.97-4.62,1.45-7.16,1.45s-4.94-.49-7.16-1.45c-2.23-.97-4.18-2.29-5.84-3.95s-2.98-3.61-3.95-5.84c-.97-2.23-1.45-4.62-1.45-7.16v-6.04c0-2.52.48-4.9,1.45-7.14.97-2.24,2.29-4.2,3.95-5.86s3.61-2.99,5.84-3.97c1.07-.46,2.17-.81,3.3-1.04l5.25-8.25c.61-.96,1.15-1.82,1.63-2.58.48-.77.88-1.54,1.22-2.32.33-.78.59-1.61.76-2.47.17-.87.26-1.88.26-3.04,0-.17-.03-.52-.09-1.04-.06-.52-.24-1.06-.54-1.63s-.77-1.06-1.41-1.5c-.64-.43-1.52-.65-2.65-.65-.81,0-1.53.17-2.15.5-.62.33-1.14.77-1.54,1.32-.41.55-.72,1.18-.93,1.89-.22.71-.33,1.44-.33,2.19v4.52h-13.07ZM277.5,69.52c0,.72.14,1.4.41,2.04.27.64.65,1.19,1.13,1.67.48.48,1.03.85,1.67,1.13.64.27,1.32.41,2.04.41s1.4-.14,2.04-.41c.64-.28,1.19-.65,1.67-1.13.48-.48.85-1.03,1.13-1.67.27-.64.41-1.32.41-2.04v-6.04c0-.72-.14-1.4-.41-2.04-.28-.64-.65-1.19-1.13-1.67s-1.04-.85-1.67-1.13c-.64-.27-1.32-.41-2.04-.41-.98,0-1.81.14-2.48.41-.67.28-1.21.65-1.63,1.13-.42.48-.72,1.04-.89,1.67-.17.64-.26,1.32-.26,2.04v6.04Z"/>
      <path class="cls-1" d="M304.63,73.16v-39.51c0-.58.02-1.14.06-1.69.04-.55.09-1.09.15-1.61.4-3.01,1.32-5.8,2.74-8.38,1.42-2.58,3.21-4.81,5.36-6.71,2.16-1.9,4.62-3.39,7.38-4.47s5.7-1.63,8.79-1.63h1.09c.58,0,1.14.02,1.69.06.55.04,1.1.09,1.65.15,2.43.35,4.72,1.01,6.86,2,.93-.29,1.91-.56,2.95-.82,3.94-.96,8.66-1.43,14.16-1.43h.65V0h13.16v11.12c3.5,1.16,6.54,2.71,9.12,4.65,2.69,2.06,4.78,4.46,6.25,7.21,1.48,2.75,2.21,5.69,2.21,8.81v27.18c0,.69-.04,1.37-.13,2.02-.09.65-.22,1.3-.39,1.93-.41,1.56-1.04,3.03-1.89,4.41-.85,1.38-1.88,2.58-3.08,3.63-1.2,1.04-2.56,1.89-4.06,2.54-1.5.65-3.11,1.02-4.82,1.11-.35.03-.68.04-1,.04-1.45,0-2.92-.22-4.43-.67-1.5-.45-2.95-1.17-4.34-2.15-1.39-.98-2.6-2.18-3.62-3.58-1.03-1.4-1.8-2.95-2.32-4.62-.2-.67-.36-1.35-.48-2.06-.12-.71-.17-1.44-.17-2.19V22.27h-.65c-2.06,0-3.91.04-5.56.13.06.09.12.17.17.26,1.19,2.4,1.97,4.96,2.34,7.69.09.52.14,1.06.17,1.61.03.55.04,1.11.04,1.69v25.83c0,.61-.03,1.19-.09,1.76-.06.56-.16,1.14-.3,1.72-.38,1.65-1.01,3.2-1.89,4.65-.88,1.45-1.96,2.71-3.24,3.78-1.27,1.07-2.72,1.91-4.34,2.52s-3.37.91-5.25.91h-.39c-1.88,0-3.63-.3-5.25-.91s-3.07-1.45-4.34-2.52c-1.27-1.07-2.35-2.33-3.23-3.78-.88-1.45-1.51-3-1.89-4.65-.15-.58-.25-1.15-.3-1.72s-.09-1.15-.09-1.76v-22.23c-.03-.98-.04-1.88-.04-2.69,0-.38,0-.92.02-1.63.01-.71.04-1.43.07-2.17.03-.74.07-1.35.11-1.82s.09-.89.15-1.24c.32-1.74.84-3.39,1.56-4.95-.41.15-.8.29-1.17.43-1.39.61-2.61,1.43-3.65,2.48s-1.86,2.25-2.45,3.63c-.59,1.38-.89,2.86-.89,4.45v39.43h-13.16ZM337.76,61.05c.38.46.88.69,1.52.69h.22c.64,0,1.14-.22,1.52-.67.38-.45.56-.98.56-1.58v-25.75c0-1.59-.3-3.08-.91-4.47-.46-1.01-1.04-1.94-1.74-2.78-.43.52-.8,1.06-1.08,1.61-.12.26-.21.6-.28,1.02-.07.42-.12.98-.15,1.69-.03.71-.06,1.59-.09,2.65-.03,1.06-.06,2.32-.09,3.8l-.04,22.23c0,.61.19,1.13.56,1.56ZM371.33,59.18c.03.64.27,1.19.72,1.65.45.46.95.69,1.5.69h.17c.26,0,.51-.07.76-.22.25-.14.46-.33.65-.54.19-.22.34-.48.46-.78.12-.3.17-.64.17-1.02v-27.14c0-1.33-.39-2.58-1.17-3.73-.78-1.1-1.87-2.07-3.26-2.91v34Z"/>
      <path class="cls-1" d="M421.69,62.26c-1.39-.72-2.63-1.64-3.71-2.74-1.08-1.1-2-2.35-2.74-3.76-.74-1.4-1.27-2.9-1.58-4.49-.06-.23-.1-.45-.13-.65-.03-.2-.06-.42-.09-.65-.03-.2-.06-.4-.09-.59-.03-.19-.04-.38-.04-.59-.03-.2-.04-6.18-.04-17.93,0-.41.01-.8.04-1.19.03-.39.06-.79.09-1.19.32-2.75,1.17-5.3,2.54-7.64,1.38-2.34,3.13-4.38,5.28-6.1,2.14-1.72,4.6-3.08,7.38-4.06,2.78-.98,5.72-1.48,8.81-1.48s6.08.52,8.86,1.56,5.24,2.47,7.38,4.28c2.14,1.81,3.9,3.94,5.28,6.38,1.37,2.45,2.21,5.09,2.5,7.92.06.41.09.81.11,1.22.01.41.02.83.02,1.26v31c0,1.94-.36,3.76-1.09,5.47-.72,1.71-1.72,3.19-3,4.45-1.27,1.26-2.76,2.26-4.47,3-1.71.74-3.53,1.11-5.47,1.11h-17.54c-.7,0-1.32.02-1.89.07-.56.04-1.03.14-1.39.3-.36.16-.54.41-.54.76,0,.64.22,1.1.65,1.39.43.29.91.46,1.43.52.52.06,1.01.09,1.48.09.17,0,.47,0,.89-.02.42-.01.85-.02,1.28-.02h29.61v13.16h-34.17c-1.94,0-3.74-.35-5.41-1.06-1.67-.71-3.12-1.68-4.36-2.91-1.25-1.23-2.24-2.69-3-4.36-.75-1.68-1.19-3.49-1.3-5.43-.03-.35-.04-.68-.04-1,0-1.8.29-3.54.87-5.23.58-1.69,1.46-3.23,2.65-4.6,1.19-1.37,2.58-2.47,4.19-3.3,1.61-.82,3.34-1.31,5.19-1.45h.09c-1.65-.26-3.16-.75-4.52-1.48ZM426.38,45.03c-.03.81-.04,1.6-.04,2.37s.03,1.44.09,2.02c.09.64.37,1.02.85,1.15s.93.2,1.37.2c.32,0,.6-.09.85-.26.25-.17.46-.4.63-.69.17-.29.3-.63.39-1.02s.14-.8.17-1.24c.03-.26.04-.52.04-.78,0-.32-.03-.71-.09-1.17-.06-.46-.19-.94-.39-1.43-.17-.46-.4-.86-.67-1.19-.28-.33-.59-.51-.93-.54-.23,0-.5.02-.8.06s-.62.21-.93.5c-.15.12-.3.26-.48.43h-.04v1.61ZM427.47,29.22c.2-.03.39-.04.56-.04.2,0,.41.01.61.04.26.03.52.05.78.06.26.02.52.02.78.02,1.59.03,3.12.33,4.58.89,1.46.56,2.79,1.33,3.97,2.3,1.19.97,2.21,2.1,3.08,3.39s1.48,2.66,1.82,4.1c.03.96.06,1.93.09,2.93.03,1,.05,1.99.07,2.97.01.98.02,1.98.02,2.97s-.03,1.98-.09,2.93c-.46,1.74-1.17,3.34-2.13,4.82-.96,1.48-2.09,2.76-3.41,3.84-1.32,1.09-2.79,1.93-4.41,2.54-.84.32-1.69.55-2.56.69h16.28c.23,0,.43-.09.61-.26.17-.17.26-.38.26-.61v-31c0-1.3-.29-2.52-.87-3.67-.58-1.14-1.36-2.14-2.34-3-.98-.85-2.14-1.53-3.47-2.04-1.33-.51-2.76-.76-4.3-.76s-2.88.22-4.21.65c-1.33.43-2.5,1.04-3.5,1.8-1,.77-1.79,1.66-2.37,2.67-.35.61-.59,1.23-.74,1.87.29-.03.58-.07.87-.13Z"/>
      <path class="cls-1" d="M521.39,10.46l.04,63h-56.36v-21.15l.04-17.24v-8.16c0-2.43.46-4.73,1.39-6.88.93-2.16,2.19-4.04,3.8-5.64s3.49-2.88,5.64-3.82c2.16-.94,4.45-1.41,6.88-1.41h.48c2.43,0,4.73.47,6.88,1.41,2.16.94,4.04,2.21,5.64,3.82s2.88,3.49,3.82,5.64c.94,2.16,1.41,4.45,1.41,6.88v25.4h-22.79v7.99h30V10.46h13.11ZM478.27,39.16h9.64v-12.24c0-.64-.12-1.23-.37-1.78-.25-.55-.57-1.03-.98-1.45-.41-.42-.89-.75-1.45-1-.56-.25-1.17-.37-1.8-.37h-.48c-.64,0-1.23.12-1.78.37-.55.25-1.04.58-1.45,1-.42.42-.75.9-.98,1.45-.23.55-.35,1.14-.35,1.78v12.24Z"/>
      <path class="cls-1" d="M525.86,32.39v-5.73c0-2.46.46-4.77,1.39-6.93.93-2.16,2.2-4.04,3.82-5.67,1.62-1.62,3.51-2.9,5.67-3.84,2.16-.94,4.48-1.41,6.97-1.41s4.83.46,7.03,1.39c2.2.93,4.11,2.19,5.73,3.8s2.9,3.5,3.84,5.67c.94,2.17,1.41,4.5,1.41,6.99,0,2.78-.4,5.41-1.19,7.88s-1.82,4.87-3.06,7.19c-1.22,2.2-2.53,4.34-3.95,6.43,1.04.69,2,1.46,2.87,2.3,1.65,1.68,2.95,3.64,3.91,5.88.96,2.24,1.43,4.62,1.43,7.14v6.04c0,.43-.01.87-.04,1.3v5.12c0,3.27-.64,6.31-1.91,9.12-1.27,2.81-2.99,5.27-5.14,7.38-2.16,2.11-4.66,3.8-7.51,5.06-2.85,1.26-5.86,1.96-9.01,2.11-.55.03-1.14.05-1.76.07-.62.01-1.09.02-1.41.02-.67,0-1.42-.02-2.26-.04-.84-.03-1.72-.08-2.65-.15-.93-.07-1.67-.18-2.21-.33v-12.77c.49.38,1.04.8,1.65,1.28.61.48,1.35.91,2.24,1.3.88.39,1.85.69,2.91.89,1.06.2,2.16.3,3.32.3.43,0,.88-.02,1.35-.04,1.01-.06,2.13-.21,3.34-.46,1.22-.25,2.34-.66,3.39-1.24.43-.29.84-.59,1.22-.91-1.25.26-2.53.39-3.86.39-2.55,0-4.94-.49-7.19-1.45-2.24-.97-4.2-2.29-5.86-3.95s-2.97-3.61-3.93-5.84-1.43-4.62-1.43-7.16v-6.04c0-2.52.48-4.9,1.43-7.14.96-2.24,2.26-4.2,3.93-5.86s3.63-2.99,5.88-3.97c1.07-.46,2.17-.81,3.3-1.04l5.21-8.25c.61-.96,1.15-1.82,1.63-2.58.48-.77.88-1.54,1.22-2.32.33-.78.59-1.61.78-2.47.19-.87.28-1.88.28-3.04,0-.17-.04-.52-.11-1.04-.07-.52-.26-1.06-.56-1.63-.3-.56-.77-1.06-1.39-1.5-.62-.43-1.5-.65-2.63-.65-.84,0-1.56.17-2.17.5-.61.33-1.12.77-1.54,1.32-.42.55-.74,1.18-.96,1.89-.22.71-.33,1.44-.33,2.19v4.52h-13.07ZM538.06,69.52c0,.72.14,1.4.43,2.04.29.64.67,1.19,1.13,1.67s1.01.85,1.65,1.13c.64.27,1.33.41,2.08.41.69,0,1.37-.14,2.02-.41.65-.28,1.22-.65,1.69-1.13s.85-1.03,1.13-1.67c.28-.64.41-1.32.41-2.04v-6.04c0-.72-.14-1.4-.41-2.04-.28-.64-.65-1.19-1.13-1.67-.48-.48-1.04-.85-1.69-1.13-.65-.27-1.32-.41-2.02-.41-1.01,0-1.85.14-2.52.41-.67.28-1.2.65-1.61,1.13-.41.48-.7,1.04-.89,1.67-.19.64-.28,1.32-.28,2.04v6.04Z"/>
      <path class="cls-1" d="M582.3,35.82c1.97,0,3.86.38,5.69,1.13,1.82.75,3.43,1.77,4.82,3.04,1.39,1.27,2.5,2.75,3.34,4.43.84,1.68,1.26,3.45,1.26,5.3v10.38c0,1.82-.37,3.58-1.11,5.25-.74,1.68-1.77,3.16-3.1,4.45-1.33,1.29-2.92,2.31-4.78,3.06s-3.88,1.13-6.08,1.13-4.15-.36-6.01-1.09c-1.87-.72-3.5-1.71-4.88-2.97-1.39-1.26-2.48-2.74-3.28-4.43-.8-1.69-1.19-3.5-1.19-5.41v-10.38c0-1.91.44-3.71,1.32-5.41s2.04-3.17,3.47-4.43c1.43-1.26,3.06-2.25,4.88-2.97,1.82-.72,3.71-1.09,5.64-1.09ZM581.78,49.02c-.23.06-.47.15-.72.28-.25.13-.46.33-.65.61-.19.28-.28.66-.28,1.15v8.12c0,.49.09.88.28,1.15.19.28.41.48.65.63.25.15.49.23.74.26.25.03.43.04.54.04.09,0,.24-.02.46-.07.22-.04.43-.14.63-.28.2-.14.39-.35.56-.63.17-.27.26-.64.26-1.11v-8.12c0-.46-.09-.83-.26-1.11-.17-.27-.37-.48-.59-.63-.22-.14-.43-.24-.63-.28-.2-.04-.36-.06-.48-.06s-.29.02-.52.04Z"/>
    </g>
  </g>
</svg>